<svg id="Layer_1" data-name="Layer 1" xmlns="http://www.w3.org/2000/svg" viewBox="0 0 688.02 102.5"><path d="M392.66,409.88v10.35h-17.1q-19.92,0-28.81-10.24t-8.88-29.82q0-19.57,8.88-29.81t28.81-10.24h16.76v10.35H376.57q-15.3,0-21.43,7T349,380.17q0,15.76,6.14,22.73t21.43,7Z" transform="translate(-337.87 -340.12)"/><path d="M410.66,364l19.47,42.65q3.93,8.78,3.94,15.18,0,9.68-6.76,15.25t-17.21,5.57H405V432.49h3.26q7.43,0,11.31-2.53c2.59-1.69,3.88-4.55,3.88-8.61q0-3.81-3.6-11.81l-21-45.57Zm25.21,47.26-5.41-12L443.74,364h11Z" transform="translate(-337.87 -340.12)"/><path d="M503.6,420.23V392q0-9.9-3.66-13.78t-13.44-3.89H474.68v45.91H464.33V364h21.83q15.63,0,21.72,7.15T514,391.2v29Z" transform="translate(-337.87 -340.12)"/><path d="M548.27,364h6.41v10.35h-5.85q-19.12,0-19.13-17.1v-8.89h10.35v8.89c0,2.55.62,4.32,1.86,5.29S545.27,364,548.27,364Zm-8.22,56.26H529.7V369.94a17.4,17.4,0,0,0,10.35,6.75Z" transform="translate(-337.87 -340.12)"/><path d="M616.67,390.3v29.93H606.32V392q0-10.25-3.54-13.62t-15.36-4.16q-12.15-.78-16.26-4.5t-4.11-12V340.12h10.36v17c0,2.63.65,4.37,2,5.23s4.55,1.45,9.73,1.74q15.52.8,21.54,6.87T616.67,390.3Zm-49.62,29.93V371q2.82,3.6,10.36,5.4v43.88Z" transform="translate(-337.87 -340.12)"/><path d="M632.43,353.62v-13.5h10.35v13.5Zm0,66.61V364h10.35v56.26Z" transform="translate(-337.87 -340.12)"/><path d="M679,384.11q8.43-1.23,11.08-2.3a3.68,3.68,0,0,0,2.64-3.55c0-2.62-2.59-3.94-7.76-3.94H661.45V364h23.18q9.45,0,14,3.94a13.4,13.4,0,0,1,4.56,10.69q0,6.52-4.33,10t-15.14,4.89q-10,1.47-13.16,3.21a6.09,6.09,0,0,0-3.15,5.79q0,7.65,9.45,7.65h15.3V395.25a25.59,25.59,0,0,0,10.35-5.06v30h-25.2q-10.58,0-15.47-5a17.47,17.47,0,0,1-4.9-12.77q0-8.32,5.29-12.49T679,384.11Z" transform="translate(-337.87 -340.12)"/><path d="M745.28,391.31V340.12H756v50.52q0,10.58,5.41,15t16.31,4.44q11,0,16.54-4.44t5.51-15V340.12h10.69v51.19q0,15-8.49,22.34T777.79,421q-15.52,0-24-7.37T745.28,391.31Z" transform="translate(-337.87 -340.12)"/><path d="M875.57,425.18q0,8.44-5.29,12.94t-19.35,4.5H832V432.49h19.36q13.73,0,13.72-6.75,0-3.37-1.74-4.78c-1.16-.94-3.85-1.48-8.05-1.63q-16.87-.68-23.68-7t-6.81-20.25q0-13.38,7.15-20.76T853.29,364h22.28V413q-3.15-4.27-10.35-6V374.32h-12q-9.45,0-13.56,4.22t-4.11,13.56q0,9.79,4.28,13.33t17.1,4q10.8.45,14.74,4.22T875.57,425.18Z" transform="translate(-337.87 -340.12)"/><path d="M926.87,374.1l-11.7,46.13H899.31l-11-56.26H899l8.44,48.38h.33L920.12,364h14.07l12.71,48.38h.34l8.1-48.38h10.24L955,420.23H939.25l-12-46.13Z" transform="translate(-337.87 -340.12)"/><path d="M987.52,364v30.16q0,8,3.65,11.87t11.54,3.88h12.82V364h10.35v56.26h-23.29q-12.93,0-19.18-6.53t-6.24-17.21V364Z" transform="translate(-337.87 -340.12)"/></svg>