<svg id="Layer_1" data-name="Layer 1" xmlns="http://www.w3.org/2000/svg" viewBox="0 0 1366 768"><path d="M295.93,413.44a12.5,12.5,0,0,1-10.24-4.6q-3.75-4.62-2.62-11.44,1.6-8.53,9.45-20.37a148.5,148.5,0,0,1,18.66-22.7,109.14,109.14,0,0,1,24.52-18.49q13.71-7.63,25.43-7.63,6.94,0,10.64,3.19t2.68,8.42q-1.49,9-10.53,18.26a91.82,91.82,0,0,1-20.42,15.76,1.09,1.09,0,0,1-.8.23c-.76,0-1.14-.45-1.14-1.36a1.18,1.18,0,0,1,.69-1.14,82.35,82.35,0,0,0,20.08-15.71q8.13-8.87,9.5-16.5a6,6,0,0,0-2.1-6.2q-2.79-2.22-8.6-2.22-9.21,0-19.68,4.84a87.35,87.35,0,0,0-19.57,12.46,155.08,155.08,0,0,0-17,16.56,109,109,0,0,0-12.86,17.69q-5,8.76-6.14,15.36-1,5.58,1.87,9.34a9.71,9.71,0,0,0,8.14,3.75q17.64,0,38.69-7.85T369.1,386.7h.68c.91,0,1.37.38,1.37,1.14a1.19,1.19,0,0,1-.68,1.14q-13.55,8.53-34.94,16.5T295.93,413.44Z"/><path d="M285.12,502.32a5.72,5.72,0,0,1-4-1.43,5.08,5.08,0,0,1-1.54-3.92q0-7.74,15.65-20.88t49.56-34.2l36.07-21.62,1.71-.91a190.37,190.37,0,0,0,12.91-19.29q6.66-11.2,7.8-16.21a.91.91,0,0,0-.34-.8.67.67,0,0,0-.8.11q-1.94.91-11.27,8.2-1,.79-4.32,3.13t-4.78,3.41c-1,.72-2.44,1.75-4.38,3.07s-3.47,2.34-4.61,3-2.45,1.4-3.92,2.16a27.85,27.85,0,0,1-3.76,1.65,8.9,8.9,0,0,1-2.79.51c-2.8,0-4.21-1.21-4.21-3.64s2.15-6.41,6.43-12.17a79.77,79.77,0,0,1,11.67-13.09,1.48,1.48,0,0,0,.39-.11,1,1,0,0,1,1.31.34,1.38,1.38,0,0,1,.46,1,1.27,1.27,0,0,1-.46.91,79.42,79.42,0,0,0-11.15,12.52q-5.91,8-5.92,10.58c0,.61.5.91,1.48.91q5.13,0,26.74-16.61,12.53-9.11,14.23-9.1c1.89,0,2.84,1,2.84,3.07s-1.67,6.26-5,12.63a167.93,167.93,0,0,1-12.75,20.25q24.93-14.44,44.95-28.67a.93.93,0,0,1,.68-.23c1,0,1.48.38,1.48,1.14a1.58,1.58,0,0,1-.45,1.14q-34.37,22.53-50.64,32.2-3.19,4.32-10,12.06a418.39,418.39,0,0,1-50.8,47.45Q296.38,502.33,285.12,502.32Zm0-2.85q10.35,0,36.7-20.48a400.8,400.8,0,0,0,50.69-47.34l5.58-6.48q-31.86,19.11-32,19.11-32.66,20.25-48.24,33.06T282.28,497C282.28,498.64,283.23,499.47,285.12,499.47Z"/><path d="M422.58,407a1.85,1.85,0,0,1-1.59-.8,2.19,2.19,0,0,1-.34-1.82q.68-3,10.35-14.51a120.31,120.31,0,0,1,18.78-18.49,1.33,1.33,0,0,1,.91-.23c.83,0,1.25.38,1.25,1.14a1.54,1.54,0,0,1-.45,1.14,97.73,97.73,0,0,0-13.15,12.17A161.28,161.28,0,0,0,427,399.22a.84.84,0,0,0-.17,1q.28.47,1.08,0,27.09-19.56,35.39-19.57,3.76,0,3.76,3.19,0,.45-1.71,9.33A27.71,27.71,0,0,0,464,400c0,1.21.88,1.82,2.62,1.82q5.92,0,15.71-4.1a119,119,0,0,0,20.14-11h.68c1,0,1.48.38,1.48,1.14a1.32,1.32,0,0,1-.8,1.14A122.78,122.78,0,0,1,483,400.19q-10.14,4.15-16.39,4.15c-3.56,0-5.35-1.44-5.35-4.32a53.67,53.67,0,0,1,1.37-7.51q1.82-6.6,1.82-8.2a1,1,0,0,0-1.14-1.14q-6.94,0-32.77,18.55c-1,.69-1.71,1.18-2.16,1.48-.69.46-1.5,1-2.45,1.71l-2.16,1.54A2.32,2.32,0,0,1,422.58,407Z"/><path d="M448.64,466.13c-1.44,0-1.89-.76-1.36-2.28l.22-.22.35-.74c.15-.34.26-.59.34-.74q31.63-49.62,79.88-106.29-29.6,1.36-56.56,4.9h-.22a1.42,1.42,0,0,1-1-.46,1.3,1.3,0,0,1-.45-.91A1.36,1.36,0,0,1,471,358q29.46-3.64,59.51-4.67,19.45-22.87,39.37-44.49a1.33,1.33,0,0,1,.91-.46,1.21,1.21,0,0,1,1.37,1.37,1.33,1.33,0,0,1-.23.91q-16.15,17.4-37.78,42.44,29.25-1,58.61,0c.75,0,1.13.46,1.13,1.37,0,.76-.49,1.14-1.48,1.14q-31.51-1.14-60.76.22-48,56.11-79.2,104.92c.53.23.53.76,0,1.6Q450,466.13,448.64,466.13Z"/><path d="M518.28,421c-1.21,0-1.82-.65-1.82-1.94q0-5.11,16.22-26.4t36.47-44.27q20.25-23,39-41.36t23.33-18.38q4,0,4,3.87,0,4.33-8.25,15.59a264.91,264.91,0,0,1-21.22,25,385.43,385.43,0,0,1-31.24,29.13,319.23,319.23,0,0,1-36,26.57A278.27,278.27,0,0,0,522,412.08c-.91,1.59-1.14,2.39-.68,2.39.3.07,1.06-.57,2.27-1.94q3-3,10.93-10.47,20.36-19.33,27.53-19.34,3.3,0,3.3,3.53c0,1.21-.79,3.83-2.39,7.85a50.06,50.06,0,0,0-2,7.28c0,2.66,1.7,4,5.12,4q7.17,0,20.94-6A160.5,160.5,0,0,0,610.8,386.7h.68c1,0,1.48.38,1.48,1.14a1.32,1.32,0,0,1-.8,1.14,166,166,0,0,1-24.35,12.91q-14.12,6.21-21.73,6.21a8.41,8.41,0,0,1-5.69-1.77,6.15,6.15,0,0,1-2-4.95q0-2.38,2.39-8.42a45.75,45.75,0,0,0,2-6.71c0-.61-.23-.91-.69-.91q-5.79,0-25.6,18.55-6.37,6.25-10.92,10.58Q519.42,421,518.28,421Zm25.84-38.7a343.45,343.45,0,0,0,33.51-25.88q16.79-14.62,28.62-27.2a251.27,251.27,0,0,0,19.28-22.7q7.46-10.12,7.46-14c0-.76-.5-1.14-1.48-1.14q-5.35,0-34.08,30.27T544.12,382.26Z"/><path d="M608,408.32a6.39,6.39,0,0,1-4.61-1.59,5.91,5.91,0,0,1-1.65-4.44q0-6.6,14.23-21.16a1.31,1.31,0,0,1,.91-.23c.91,0,1.36.38,1.36,1.14a1.32,1.32,0,0,1-.45.91A88.83,88.83,0,0,0,608,394.44c-2.46,3.57-3.7,6.18-3.7,7.85,0,2.2,1.22,3.3,3.64,3.3q5.24,0,19.63-6.37a165.17,165.17,0,0,0,23.73-12.52H652c1,0,1.48.38,1.48,1.14A1.54,1.54,0,0,1,653,389a190.4,190.4,0,0,1-24.81,12.91Q613.65,408.33,608,408.32Zm14.91-31.4c-.91,0-1.36-.38-1.36-1.14a1.61,1.61,0,0,1,.22-1l.91-.91c1.14-1.51,1.86-2.5,2.16-3a1.67,1.67,0,0,1,1.14-.56c.76,0,1.14.49,1.14,1.48a1.35,1.35,0,0,1-.23.91,16.91,16.91,0,0,0-2.05,2.84l-.91.91A1,1,0,0,1,622.86,376.92Z"/><path d="M678.28,407.19q-8.31,0-8.31-6.95,0-5.46,5.8-14c.31-.3.36-.51.18-.63s-.4-.06-.63.17c-1.37.84-2.92,1.9-4.67,3.19-.6.38-1.74,1.18-3.41,2.39s-2.92,2.1-3.76,2.67l-3.69,2.56c-1.64,1.14-2.94,2-3.93,2.68s-2.2,1.42-3.64,2.33a37.84,37.84,0,0,1-3.7,2.1l-3.19,1.54a15.9,15.9,0,0,1-3,1.14,9.92,9.92,0,0,1-2.39.34,4.43,4.43,0,0,1-3.07-1,3.51,3.51,0,0,1-1.14-2.73q0-3.76,5.57-8.82a57.54,57.54,0,0,1,12.46-8.6q6.88-3.53,10.87-3.52,4.67,0,6.49,3.52,7.39-5.69,8.87-5.68c1.07,0,1.6.56,1.6,1.7q0,1.14-2.51,4.67-6.6,9.21-6.6,14a3.55,3.55,0,0,0,1.37,3.19,8.22,8.22,0,0,0,4.44.91q5.91,0,18.89-5.23a97.17,97.17,0,0,0,22.19-12.18,1.31,1.31,0,0,1,.91-.23,1,1,0,0,1,1.14,1.14A1.55,1.55,0,0,1,721,389a117.79,117.79,0,0,1-23,12.57Q684.53,407.19,678.28,407.19Zm-38.35-3.3q6.26,0,28.9-17a4.6,4.6,0,0,0-1.48-1.88,5.34,5.34,0,0,0-2.73-.51q-3.87,0-10.24,3.41a56.09,56.09,0,0,0-11.26,7.86q-4.9,4.43-4.9,7.17C638.22,403.58,638.79,403.89,639.93,403.89Z"/><path d="M771,420a7.74,7.74,0,0,1-5.52-1.87,7.07,7.07,0,0,1-2-5.41,20.18,20.18,0,0,1,1.37-6.77,46.57,46.57,0,0,1,4.55-8.87q3.18-5.07,5.8-9t7.85-10.41q5.24-6.48,7.91-9.73t8.48-10.18q19.46-23.1,21.39-28.45a1.19,1.19,0,0,1,1.14-.91,1.38,1.38,0,0,1,1,.46,1.27,1.27,0,0,1,.46.91v.45q-2.06,5.12-19.35,25.95c-1.13,1.44-2,2.5-2.61,3.18q-8.09,9.56-12.69,15.31t-10.64,13.94a96,96,0,0,0-8.93,14.11q-2.91,5.91-2.91,10,0,4.44,4.67,4.44,6.72,0,21.22-10a299.28,299.28,0,0,0,28.51-22.42q14-12.4,27.42-25.83a.68.68,0,0,0,.23-.46q14.11-23.1,19.57-23.1a2,2,0,0,1,1.77.91,1.73,1.73,0,0,1,0,1.94q-1.69,4.2-19.11,21.62a.62.62,0,0,0-.23.45,265.18,265.18,0,0,0-13.15,24.35q-5.74,12.18-5.74,16.5,0,7.17,7.28,7.17,13.77,0,46.09-21.39a1.1,1.1,0,0,1,.79-.23c.91,0,1.37.38,1.37,1.14a1.51,1.51,0,0,1-.46,1.14q-33.33,22-47.79,22c-3.26,0-5.75-.85-7.45-2.56s-2.56-4.11-2.56-7.23q0-3.18,3.81-12.17t9.05-18.66c.3-.46.41-.76.34-.91s-.25-.21-.51-.17a1.87,1.87,0,0,0-.86.39,476.59,476.59,0,0,1-41,35.56Q780.23,420,771,420Zm86.48-70.66q4.44-4.67,7.17-7.8c1.82-2.08,2.54-3.13,2.16-3.13Q865.36,338.45,857.5,349.38Z"/><path d="M791.5,502.32a5.72,5.72,0,0,1-4-1.43,5.07,5.07,0,0,1-1.53-3.92q0-4.89,18.15-18.83t60.59-41.6q16.27-17.4,35.85-42c.75-1.21.94-1.8.57-1.76a12.84,12.84,0,0,0-3.08,1.54q-20.25,12.41-25.71,12.4-3.87,0-3.87-4,0-3.76,6.26-9.05a63,63,0,0,1,14.79-9.16q8.53-3.87,14.56-3.87,5.81,0,5.81,3.41a8.08,8.08,0,0,1-1.37,4q-1.37,2.28-5.8,8.19-13.09,17-28.9,34.48l22.3-14.68q38.11-24.46,43.35-28.67a1.3,1.3,0,0,1,.91-.23q1.26,0,1.26,1.14c0,.6-.19,1-.57,1.13q-7.86,6.27-43.47,28.91-16.72,10.8-31.07,20.37-5.12,5.46-30.72,31.86Q804.36,502.31,791.5,502.32Zm0-2.85q11.61,0,42.33-30.72,15.82-16.28,23.1-24Q788.44,490,788.43,497C788.43,498.64,789.45,499.47,791.5,499.47Zm80.8-95.36q4.1,0,24.23-12.06c1.37-.83,2.7-1.67,4-2.5S903,388,904,387.33s1.72-1.08,2.1-1.31l.69-.68a2.88,2.88,0,0,0,.22-1.26c0-.45-1-.68-3-.68q-5,0-13,3.59a67.86,67.86,0,0,0-13.94,8.25q-6,4.67-6,7.51C871.16,403.66,871.54,404.11,872.3,404.11Z"/><path d="M924.53,418.34c-2.51,0-3.76-1.07-3.76-3.19q0-5.58,9.33-17.41t16.73-16.39a.76.76,0,0,0,.34-.11,1,1,0,0,1,.34-.11,1.45,1.45,0,0,1,1,.45,1.34,1.34,0,0,1,.45.91,1.17,1.17,0,0,1-.68,1.14q-7.17,4.56-15.93,15.65t-8.76,15.64a.8.8,0,0,0,.91.91q4.54,0,15.25-8.08t15.93-13.88c.45-.68,1.1-.76,1.93-.23a1.22,1.22,0,0,1,.46,1.94q-4.22,7.74-4.21,13c0,1.29.38,1.94,1.13,1.94q4.79,0,12.52-8.77t9.9-16.16a1.07,1.07,0,0,0-.23-.79,4.64,4.64,0,0,1-1.93-3.64,2.31,2.31,0,0,1,2.62-2.62q2.51,0,2.5,4v.91c0,.46.08.68.23.68q11.26,6.84,21.73,6.83,11.39,0,18.21-4.21h.68c.91,0,1.37.38,1.37,1.14a1.91,1.91,0,0,1-.68,1.14q-8.21,4.66-19.58,4.66-10.23,0-22.19-6.48c-.22-.23-.45-.15-.68.23q-2.73,8.19-10.87,16.89T955,413q-4,0-4-4.44a23.38,23.38,0,0,1,1.48-6.49c.15-.37.1-.62-.17-.73s-.55,0-.85.28a124,124,0,0,1-14.91,11.49Q928.63,418.33,924.53,418.34Z"/><path d="M1043.33,407q-8.43,0-8.42-6.94,0-3.3,3.3-8.88c.91-1.29,1.27-1.95,1.08-2s-.89.4-2.11,1.31q-18.09,14.67-23,14.68a3.33,3.33,0,0,1-2.56-1,3.47,3.47,0,0,1-1-2.5q0-6.37,13.54-18.44a1.32,1.32,0,0,1,.91-.45,1.37,1.37,0,0,1,.91.4,1.25,1.25,0,0,1,.46,1,1.35,1.35,0,0,1-.46.92,61.28,61.28,0,0,0-9.16,9.5q-3.36,4.5-3.36,6.88,0,1.14.69,1.14,3.75,0,21.39-14.22c.61-.46,1.4-1.1,2.39-1.94q8.31-6.6,9.56-6.71,3.75,0-1.48,6.14-8.65,9.79-8.65,14.23a3.86,3.86,0,0,0,1.37,3.3,7.76,7.76,0,0,0,4.55,1q5.46,0,18.72-5.69a125.61,125.61,0,0,0,22.24-11.95,1.36,1.36,0,0,1,.91-.22c.84,0,1.26.45,1.26,1.36,0,.23-.19.53-.57.91A137.64,137.64,0,0,1,1063.07,401Q1049.36,407,1043.33,407Z"/></svg>